<?xml version="1.0" encoding="UTF-8"?>
<svg id="Layer_1" data-name="Layer 1" xmlns="http://www.w3.org/2000/svg" viewBox="0 0 612 792">
  <defs>
    <style>
      .cls-1 {
        fill: #d6d5d5;
      }
    </style>
  </defs>
  <path class="cls-1" d="m206.03557,281.8536c-.1953.1952-.5119.1952-.7072,0l-3.1819-3.182c-.1953-.1953-.1953-.5119,0-.7071.1952-.1953.5118-.1953.7071,0l2.8284,2.8284,2.8284-2.8284c.1953-.1953.5119-.1953.7071,0,.1953.1952.1953.5118,0,.7071l-3.1819,3.182Zm14.6464-23.8536h-5v-1h5v1Zm-14.5,9.5v14h-1v-14h1Zm9.5-9.5c-5.2467,0-9.5,4.25329-9.5,9.5h-1c0-5.79899,4.701-10.5,10.5-10.5v1Z"/>
</svg>