<svg width="13" height="16" viewBox="0 0 13 16" fill="none" xmlns="http://www.w3.org/2000/svg">
<path d="M4.35355 15.3536C4.15829 15.5488 3.84171 15.5488 3.64645 15.3536L0.464466 12.1716C0.269204 11.9763 0.269204 11.6597 0.464466 11.4645C0.659728 11.2692 0.976311 11.2692 1.17157 11.4645L4 14.2929L6.82843 11.4645C7.02369 11.2692 7.34027 11.2692 7.53553 11.4645C7.7308 11.6597 7.7308 11.9763 7.53553 12.1716L4.35355 15.3536ZM13 1.5H8V0.5H13V1.5ZM4.5 5V15H3.5V5H4.5ZM8 1.5C6.067 1.5 4.5 3.067 4.5 5H3.5C3.5 2.51472 5.51472 0.5 8 0.5V1.5Z" fill="#B5B5B5"/>
</svg>
