<svg width="19" height="26" viewBox="0 0 19 26" fill="none" xmlns="http://www.w3.org/2000/svg">
<path d="M4.03524 25.3536C3.83994 25.5488 3.52334 25.5488 3.32804 25.3536L0.146141 22.1716C-0.0491589 21.9763 -0.0491589 21.6597 0.146141 21.4645C0.341341 21.2692 0.657941 21.2692 0.853241 21.4645L3.68164 24.2929L6.51004 21.4645C6.70534 21.2692 7.02194 21.2692 7.21714 21.4645C7.41244 21.6597 7.41244 21.9763 7.21714 22.1716L4.03524 25.3536ZM18.6816 1.5H13.6816V0.5H18.6816V1.5ZM4.18164 11V25H3.18164V11H4.18164ZM13.6816 1.5C8.43494 1.5 4.18164 5.75329 4.18164 11H3.18164C3.18164 5.20101 7.88264 0.5 13.6816 0.5V1.5Z" fill="#D5D5D5"/>
</svg>
