<?xml version="1.0" encoding="UTF-8"?>
<svg id="Layer_1" data-name="Layer 1" xmlns="http://www.w3.org/2000/svg" viewBox="0 0 19 26">
  <defs>
    <style>
      .cls-1 {
        fill: #d5d5d5;
      }
    </style>
  </defs>
  <path class="cls-1" d="m14.6464,25.3536c.1953.1952.5119.1952.7072,0l3.1819-3.182c.1953-.1953.1953-.5119,0-.7071-.1952-.1953-.5118-.1953-.7071,0l-2.8284,2.8284-2.8284-2.8284c-.1953-.1953-.5119-.1953-.7071,0-.1953.1952-.1953.5118,0,.7071l3.1819,3.182ZM0,1.5h5V.5H0v1Zm14.5,9.5v14h1v-14h-1ZM5,1.5c5.2467,0,9.5,4.25329,9.5,9.5h1C15.5,5.20101,10.799.5,5,.5v1Z"/>
</svg>